<?xml version="1.0" encoding="utf-8"?>
<!-- Generator: Adobe Illustrator 19.2.1, SVG Export Plug-In . SVG Version: 6.00 Build 0)  -->
<svg version="1.1" id="Capa_1" xmlns="http://www.w3.org/2000/svg" xmlns:xlink="http://www.w3.org/1999/xlink" x="0px" y="0px"
	 viewBox="0 0 500 500" style="enable-background:new 0 0 500 500;" xml:space="preserve">
<style type="text/css">
	.st0{fill:#FFFFFF;}
	.st1{fill:#CD2027;}
</style>
<g>
	<ellipse class="st0" cx="251.3" cy="249.7" rx="182.6" ry="188.3"/>
	<g>
		<g>
			<path class="st1" d="M224.7,239.6c-5.5,0-10.4,0.9-14.5,2.6c-4.1,1.7-7.6,4.7-10.3,8.8c-2.7,4.2-4.7,9.7-6,16.8
				c-1.3,7-2,15.8-2,26.3c0,10.1,0.7,18.7,2,25.6c1.3,6.9,3.7,12.6,7,17c3.4,4.4,8,7.5,13.8,9.5c5.8,1.9,13.2,2.9,22.2,2.9V240.4
				c-2.3-0.3-4.4-0.5-6.3-0.6C228.8,239.6,226.8,239.6,224.7,239.6z"/>
		</g>
		<g>
			<path class="st1" d="M249.6,2.9C113.2,2.9,2.7,113.4,2.7,249.8s110.5,246.9,246.9,246.9c136.4,0,246.9-110.6,246.9-246.9
				S386,2.9,249.6,2.9z M347.4,150.4c-3.1-0.6-6.5-0.9-10.4-0.9c-8.2,0-15.4,1.6-21.5,4.7c-6.2,3.1-11.3,7.5-15.5,13.2
				c-4.2,5.7-7.3,12.6-9.4,20.8c-2.1,8.2-3.1,17.4-3.1,27.5v178.2h-0.3H253h-15.7v-0.4c-11-0.6-21.2-1.7-30.5-3.4
				c-13.6-2.6-25.1-7.5-34.5-14.8c-9.4-7.3-16.7-17.4-21.7-30.4c-5-13-7.5-29.9-7.5-50.7c0-16.7,1.4-30.8,4.1-42.5
				c2.7-11.7,7.1-21.2,13.1-28.7c6-7.4,13.8-12.8,23.4-16.1c9.6-3.3,21.1-5,34.7-5c3,0,6,0,8.9,0.1c2.9,0.1,6.3,0.3,10.2,0.7
				c-0.5-7.9-1.9-15.1-3.9-21.8c-2.1-6.6-5-12.3-8.7-17.1c-3.7-4.8-8.3-8.5-13.6-11.1c-5.3-2.6-11.4-3.9-18.3-3.9
				c-5.8,0-10.8,0.5-15,1.5c-4.2,1-8.3,2.2-12.3,3.7l2.9-46.4c3.9-0.7,8.3-1.1,13.3-1.3c5-0.2,9.4-0.3,13.1-0.3
				c15.8,0,29.5,2.8,41,8.4c11,5.3,20.1,12.8,27.5,22.2c8.3-9.8,18.5-17.4,30.7-22.6c12.4-5.3,26.5-8,42.5-8c3.2,0,6.4,0.2,9.7,0.5
				c3.3,0.3,6,0.7,8.2,1.1l1.7,45.6C353.3,151.9,350.4,151,347.4,150.4z"/>
		</g>
	</g>
</g>
</svg>
